<?xml version="1.0" encoding="UTF-8" standalone="no"?>
<!-- Created with Inkscape (http://www.inkscape.org/) -->

<svg
   xmlns:dc="http://purl.org/dc/elements/1.1/"
   xmlns:cc="http://creativecommons.org/ns#"
   xmlns:rdf="http://www.w3.org/1999/02/22-rdf-syntax-ns#"
   xmlns:svg="http://www.w3.org/2000/svg"
   xmlns="http://www.w3.org/2000/svg"
   xmlns:xlink="http://www.w3.org/1999/xlink"
   xmlns:sodipodi="http://sodipodi.sourceforge.net/DTD/sodipodi-0.dtd"
   xmlns:inkscape="http://www.inkscape.org/namespaces/inkscape"
   width="54.419373mm"
   height="14.056225mm"
   viewBox="0 0 54.419371 14.056225"
   version="1.1"
   id="svg838"
   inkscape:version="0.92.5 (2060ec1f9f, 2020-04-08)"
   sodipodi:docname="logo.light.shapes.svg"
   inkscape:export-filename="/home/henning/Projects/capybara-lockstep/media/capybara-lockstep3.light.png"
   inkscape:export-xdpi="196"
   inkscape:export-ydpi="196">
  <defs
     id="defs832">
    <linearGradient
       inkscape:collect="always"
       id="linearGradient1406">
      <stop
         style="stop-color:#ff0844;stop-opacity:1"
         offset="0"
         id="stop1402" />
      <stop
         style="stop-color:#ffb199;stop-opacity:1"
         offset="1"
         id="stop1404" />
    </linearGradient>
    <linearGradient
       inkscape:collect="always"
       xlink:href="#linearGradient1406"
       id="linearGradient1408"
       x1="22.054907"
       y1="91.071762"
       x2="88.956696"
       y2="91.071762"
       gradientUnits="userSpaceOnUse"
       gradientTransform="matrix(0.81266367,0,0,0.08820435,-17.923223,57.908781)" />
  </defs>
  <sodipodi:namedview
     id="base"
     pagecolor="#ffffff"
     bordercolor="#666666"
     borderopacity="1.0"
     inkscape:pageopacity="0.0"
     inkscape:pageshadow="2"
     inkscape:zoom="11.2"
     inkscape:cx="176.16323"
     inkscape:cy="-15.690078"
     inkscape:document-units="mm"
     inkscape:current-layer="layer1"
     showgrid="false"
     fit-margin-top="0"
     fit-margin-left="0"
     fit-margin-right="0"
     fit-margin-bottom="0"
     inkscape:window-width="2560"
     inkscape:window-height="1391"
     inkscape:window-x="1920"
     inkscape:window-y="0"
     inkscape:window-maximized="1" />
  <metadata
     id="metadata835">
    <rdf:RDF>
      <cc:Work
         rdf:about="">
        <dc:format>image/svg+xml</dc:format>
        <dc:type
           rdf:resource="http://purl.org/dc/dcmitype/StillImage" />
        <dc:title></dc:title>
      </cc:Work>
    </rdf:RDF>
  </metadata>
  <g
     inkscape:label="Layer 1"
     inkscape:groupmode="layer"
     id="layer1"
     transform="translate(0.05820833,-52.518951)">
    <g
       aria-label="QUERY DIET"
       style="font-style:normal;font-variant:normal;font-weight:normal;font-stretch:normal;font-size:10.58333302px;line-height:1.25;font-family:'League Spartan';-inkscape-font-specification:'League Spartan';letter-spacing:0px;word-spacing:0px;fill:#141210;fill-opacity:1;stroke:none;stroke-width:0.26458332"
       id="text1385">
      <path
         d="m 5.3974998,59.847909 q 0.301625,0 0.53975,-0.07408 0.2434167,-0.06879 0.3915833,-0.148167 0.1481667,-0.07937 0.1693334,-0.105833 l 0.5344583,1.037167 q -0.15875,0.264583 -0.5767917,0.502708 -0.41275,0.238125 -1.0477499,0.238125 -0.3915834,0 -0.66675,-0.08996 -0.269875,-0.08996 -0.5027083,-0.211667 -0.2328334,-0.116417 -0.508,-0.206375 -0.269875,-0.08996 -0.66675,-0.08996 -0.3227917,0 -0.5715,0.09525 -0.2487083,0.100541 -0.3915833,0.201083 -0.1375833,0.100542 -0.1481667,0.121708 l -0.6455833,-0.762 q 0.3227917,-0.375708 0.8625417,-0.619125 0.5397499,-0.238125 1.2276666,-0.238125 0.4392083,0 0.762,0.08996 0.3227916,0.08467 0.6085416,0.169333 0.2910417,0.08996 0.6297083,0.08996 z M 1.5875,56.133159 q 0,0.597959 0.2434166,1.084792 0.2487083,0.481542 0.682625,0.767292 0.4392083,0.28575 1.016,0.28575 0.5767916,0 1.0107083,-0.28575 0.4392083,-0.28575 0.6826249,-0.767292 0.2487084,-0.486833 0.2487084,-1.084792 0,-0.597958 -0.2487084,-1.0795 -0.2434166,-0.481541 -0.6826249,-0.767291 -0.4339167,-0.291042 -1.0107083,-0.291042 -0.5767917,0 -1.016,0.291042 -0.4339167,0.28575 -0.682625,0.767291 Q 1.5875,55.535201 1.5875,56.133159 Z m -1.64570833,0 q 0,-0.762 0.26987499,-1.418166 0.26987499,-0.661459 0.75670831,-1.153584 0.48683333,-0.492125 1.14299993,-0.767291 0.6561667,-0.275167 1.4181667,-0.275167 0.7725833,0 1.4234582,0.275167 0.6561667,0.275166 1.1377083,0.767291 0.4868334,0.492125 0.7514167,1.153584 0.269875,0.656166 0.269875,1.418166 0,0.767292 -0.2592917,1.42875 -0.2592916,0.656167 -0.7408333,1.153584 -0.4815416,0.492125 -1.1377083,0.767291 -0.6561666,0.275167 -1.4446249,0.275167 -0.8043334,0 -1.4657917,-0.275167 Q 1.4075833,59.207618 0.9313333,58.715493 0.45508332,58.218076 0.19579166,57.561909 -0.05820833,56.900451 -0.05820833,56.133159 Z"
         style="font-style:normal;font-variant:normal;font-weight:bold;font-stretch:normal;font-family:'League Spartan';-inkscape-font-specification:'League Spartan';fill:#141210;fill-opacity:1;stroke-width:0.26458332"
         id="path822" />
      <path
         d="m 11.927411,52.645951 h 1.582209 v 4.291542 q 0,0.862541 -0.338667,1.497541 -0.338667,0.629709 -0.968375,0.978959 -0.629708,0.343958 -1.502833,0.343958 -0.8784169,0 -1.5134169,-0.343958 -0.635,-0.34925 -0.9736666,-0.978959 -0.333375,-0.635 -0.333375,-1.497541 v -4.291542 h 1.5769166 v 4.206875 q 0,0.47625 0.1481667,0.804333 0.1534583,0.328084 0.4339162,0.497417 0.280459,0.164042 0.661459,0.164042 0.375708,0 0.650875,-0.164042 0.275166,-0.169333 0.423333,-0.497417 0.153458,-0.328083 0.153458,-0.804333 z"
         style="font-style:normal;font-variant:normal;font-weight:bold;font-stretch:normal;font-family:'League Spartan';-inkscape-font-specification:'League Spartan';fill:#141210;fill-opacity:1;stroke-width:0.26458332"
         id="path824" />
      <path
         d="m 14.626155,52.645951 h 4.460875 v 1.386417 h -2.883958 v 1.423458 h 2.8575 v 1.344083 h -2.8575 v 1.444625 h 2.883958 v 1.386417 h -4.460875 z"
         style="font-style:normal;font-variant:normal;font-weight:bold;font-stretch:normal;font-family:'League Spartan';-inkscape-font-specification:'League Spartan';fill:#141210;fill-opacity:1;stroke-width:0.26458332"
         id="path826" />
      <path
         d="m 20.251177,52.645951 h 2.846916 q 0.608542,0 1.084792,0.254 0.47625,0.254 0.751417,0.735542 0.280458,0.47625 0.280458,1.137708 0,0.661458 -0.238125,1.084792 -0.232833,0.418041 -0.560917,0.629708 -0.328083,0.206375 -0.608541,0.248708 l 1.698625,2.894542 h -1.778 l -1.513417,-2.772833 h -0.381 v 2.772833 h -1.582208 z m 1.582208,3.116792 h 0.6985 q 0.423333,0 0.740833,-0.206375 0.3175,-0.206375 0.3175,-0.73025 0,-0.523875 -0.312208,-0.724959 -0.312208,-0.206375 -0.735542,-0.206375 h -0.709083 z"
         style="font-style:normal;font-variant:normal;font-weight:bold;font-stretch:normal;font-family:'League Spartan';-inkscape-font-specification:'League Spartan';fill:#141210;fill-opacity:1;stroke-width:0.26458332"
         id="path828" />
      <path
         d="M 27.564248,57.117409 25.15654,52.645951 h 1.920875 l 1.275291,2.661708 1.280584,-2.661708 h 1.910291 l -2.397125,4.471458 v 2.513542 h -1.582208 z"
         style="font-style:normal;font-variant:normal;font-weight:bold;font-stretch:normal;font-family:'League Spartan';-inkscape-font-specification:'League Spartan';fill:#141210;fill-opacity:1;stroke-width:0.26458332"
         id="path830" />
      <path
         d="m 34.956681,52.645951 h 2.100791 q 1.116542,0 1.846792,0.449792 0.735541,0.4445 1.100666,1.232958 0.365125,0.788458 0.365125,1.804458 0,1.021292 -0.365125,1.80975 -0.365125,0.788459 -1.100666,1.23825 -0.73025,0.449792 -1.846792,0.449792 h -2.100791 z m 1.576916,1.402292 v 4.180416 h 0.381 q 0.597958,0 0.989542,-0.269875 0.391583,-0.275166 0.587375,-0.746125 0.201083,-0.47625 0.201083,-1.068916 0,-0.597959 -0.195792,-1.068917 -0.1905,-0.47625 -0.587375,-0.751417 -0.396875,-0.275166 -0.994833,-0.275166 z"
         style="font-style:normal;font-variant:normal;font-weight:bold;font-stretch:normal;font-family:'League Spartan';-inkscape-font-specification:'League Spartan';fill:#141210;fill-opacity:1;stroke-width:0.26458332"
         id="path832" />
      <path
         d="m 41.354288,52.645951 h 1.582208 v 6.985 h -1.582208 z"
         style="font-style:normal;font-variant:normal;font-weight:bold;font-stretch:normal;font-family:'League Spartan';-inkscape-font-specification:'League Spartan';fill:#141210;fill-opacity:1;stroke-width:0.26458332"
         id="path834" />
      <path
         d="m 44.158854,52.645951 h 4.460875 v 1.386417 H 45.73577 v 1.423458 h 2.8575 v 1.344083 h -2.8575 v 1.444625 h 2.883959 v 1.386417 h -4.460875 z"
         style="font-style:normal;font-variant:normal;font-weight:bold;font-stretch:normal;font-family:'League Spartan';-inkscape-font-specification:'League Spartan';fill:#141210;fill-opacity:1;stroke-width:0.26458332"
         id="path836" />
      <path
         d="m 51.117372,54.032368 h -1.666875 v -1.386417 h 4.910667 v 1.386417 h -1.661583 v 5.598583 h -1.582209 z"
         style="font-style:normal;font-variant:normal;font-weight:bold;font-stretch:normal;font-family:'League Spartan';-inkscape-font-specification:'League Spartan';fill:#141210;fill-opacity:1;stroke-width:0.26458332"
         id="path838" />
    </g>
    <rect
       style="fill:url(#linearGradient1408);fill-opacity:1;stroke:none;stroke-width:0.02677321;stroke-miterlimit:4;stroke-dasharray:none;stroke-opacity:1"
       id="rect1387"
       width="54.368649"
       height="1.2668874"
       x="-3.5490422e-15"
       y="65.308289" />
  </g>
</svg>
